# xmcd CD database file
#
# Track frame offsets:
#	183
#	12058
#	26358
#	38633
#	49458
#	61283
#	73283
#	84508
#	100608
#	111683
#	125533
#	140508
#	151808
#	161133
#	174108
#
# Disc length: 2461 seconds
#
# Revision: 0
# Processed by: cddbd v1.5.2PL0 Copyright (c) Steve Scherf et al.
# Submitted via: CDex 1.70beta2
#
DISCID=c4099b0f
DTITLE=Etienne Cap - Keep In Touch
DYEAR=1985
DGENRE=Jazz
TTITLE0=Dancing In The Dark
TTITLE1=Stranger On The Shore
TTITLE2=Stars In Your Eyes
TTITLE3=I Can't Dance
TTITLE4=Black Is Black
TTITLE5=Cheek To Cheek
TTITLE6=Bim Bam
TTITLE7=Keep In Touch
TTITLE8=Good Night, Ladies
TTITLE9=Deutscher Tanz Nr. 7
TTITLE10=A Tribute To Swing Heros
TTITLE11=A Woman In Love
TTITLE12=L' Arlesienne Fantasie
TTITLE13=Dorfschwalben Aus Oesterreich
TTITLE14=Dancers Parade
EXTD=YEAR: 1985
EXTT0=
EXTT1=
EXTT2=
EXTT3=
EXTT4=
EXTT5=
EXTT6=
EXTT7=
EXTT8=
EXTT9=
EXTT10=
EXTT11=
EXTT12=
EXTT13=
EXTT14=
PLAYORDER=
